# xmcd CD database file
#
# Track frame offsets:
#	150
#	16318
#	40259
#	65073
#	85003
#	110087
#	132810
#	157772
#	176504
#	190858
#	207834
#	241373
#
# Disc length: 3561 seconds
#
# Revision: 1
# Processed by: cddbd v1.5.2PL0 Copyright (c) Steve Scherf et al.
# Submitted via: CDex 1.51
#
DISCID=990de70c
DTITLE=Ron Hacker - The Hacksaws Live in Holland
DYEAR=1900
DGENRE=Blues
TTITLE0=Mambo For Albert
TTITLE1=Broke And Hungry
TTITLE2=My Bad Boy
TTITLE3=It Hursts Me Too
TTITLE4=Back Door Man
TTITLE5=What We Want Me To Do
TTITLE6=Almost Grown
TTITLE7=Walkin'Blues
TTITLE8=I Got Tatooed
TTITLE9=Prison Mind
TTITLE10=House Rent Blues
TTITLE11=Watch What You Say
EXTD=
EXTT0=
EXTT1=
EXTT2=
EXTT3=
EXTT4=
EXTT5=
EXTT6=
EXTT7=
EXTT8=
EXTT9=
EXTT10=
EXTT11=
PLAYORDER=
